<svg width="149" height="34" viewBox="0 0 149 34" fill="none" xmlns="http://www.w3.org/2000/svg">
<path d="M41.9919 16L46.9839 4.8H49.5439L54.5519 16H51.8319L47.7359 6.112H48.7599L44.6479 16H41.9919ZM44.4879 13.6L45.1759 11.632H50.9359L51.6399 13.6H44.4879ZM58.9139 16V4.8H63.7619C64.7646 4.8 65.6286 4.96533 66.3539 5.296C67.0793 5.616 67.6393 6.08 68.0339 6.688C68.4286 7.296 68.6259 8.02133 68.6259 8.864C68.6259 9.696 68.4286 10.416 68.0339 11.024C67.6393 11.6213 67.0793 12.08 66.3539 12.4C65.6286 12.72 64.7646 12.88 63.7619 12.88H60.3539L61.5059 11.744V16H58.9139ZM66.0339 16L63.2339 11.936H66.0019L68.8339 16H66.0339ZM61.5059 12.032L60.3539 10.816H63.6179C64.4179 10.816 65.0153 10.6453 65.4099 10.304C65.8046 9.952 66.0019 9.472 66.0019 8.864C66.0019 8.24533 65.8046 7.76533 65.4099 7.424C65.0153 7.08267 64.4179 6.912 63.6179 6.912H60.3539L61.5059 5.68V12.032ZM79.2396 16.192C78.3756 16.192 77.5702 16.0533 76.8236 15.776C76.0876 15.488 75.4476 15.0827 74.9036 14.56C74.3596 14.0373 73.9329 13.424 73.6236 12.72C73.3249 12.016 73.1756 11.2427 73.1756 10.4C73.1756 9.55733 73.3249 8.784 73.6236 8.08C73.9329 7.376 74.3596 6.76267 74.9036 6.24C75.4582 5.71733 76.1036 5.31733 76.8396 5.04C77.5756 4.752 78.3809 4.608 79.2556 4.608C80.2262 4.608 81.1009 4.77867 81.8796 5.12C82.6689 5.45067 83.3302 5.94133 83.8636 6.592L82.1996 8.128C81.8156 7.69067 81.3889 7.36533 80.9196 7.152C80.4502 6.928 79.9382 6.816 79.3836 6.816C78.8609 6.816 78.3809 6.90133 77.9436 7.072C77.5062 7.24267 77.1276 7.488 76.8076 7.808C76.4876 8.128 76.2369 8.50667 76.0556 8.944C75.8849 9.38133 75.7996 9.86667 75.7996 10.4C75.7996 10.9333 75.8849 11.4187 76.0556 11.856C76.2369 12.2933 76.4876 12.672 76.8076 12.992C77.1276 13.312 77.5062 13.5573 77.9436 13.728C78.3809 13.8987 78.8609 13.984 79.3836 13.984C79.9382 13.984 80.4502 13.8773 80.9196 13.664C81.3889 13.44 81.8156 13.104 82.1996 12.656L83.8636 14.192C83.3302 14.8427 82.6689 15.3387 81.8796 15.68C81.1009 16.0213 80.2209 16.192 79.2396 16.192ZM96.4939 4.8H99.0859V16H96.4939V4.8ZM91.4059 16H88.8139V4.8H91.4059V16ZM96.6859 11.408H91.2139V9.216H96.6859V11.408ZM104.936 16V4.8H107.528V16H104.936ZM116.699 16L111.867 4.8H114.667L118.891 14.72H117.243L121.531 4.8H124.107L119.259 16H116.699ZM128.242 16V4.8H130.834V16H128.242ZM142.132 16.192C141.247 16.192 140.425 16.048 139.668 15.76C138.921 15.472 138.271 15.0667 137.716 14.544C137.172 14.0213 136.745 13.408 136.436 12.704C136.137 12 135.988 11.232 135.988 10.4C135.988 9.568 136.137 8.8 136.436 8.096C136.745 7.392 137.177 6.77867 137.732 6.256C138.287 5.73333 138.937 5.328 139.684 5.04C140.431 4.752 141.241 4.608 142.116 4.608C143.001 4.608 143.812 4.752 144.548 5.04C145.295 5.328 145.94 5.73333 146.484 6.256C147.039 6.77867 147.471 7.392 147.78 8.096C148.089 8.78933 148.244 9.55733 148.244 10.4C148.244 11.232 148.089 12.0053 147.78 12.72C147.471 13.424 147.039 14.0373 146.484 14.56C145.94 15.072 145.295 15.472 144.548 15.76C143.812 16.048 143.007 16.192 142.132 16.192ZM142.116 13.984C142.617 13.984 143.076 13.8987 143.492 13.728C143.919 13.5573 144.292 13.312 144.612 12.992C144.932 12.672 145.177 12.2933 145.348 11.856C145.529 11.4187 145.62 10.9333 145.62 10.4C145.62 9.86667 145.529 9.38133 145.348 8.944C145.177 8.50667 144.932 8.128 144.612 7.808C144.303 7.488 143.935 7.24267 143.508 7.072C143.081 6.90133 142.617 6.816 142.116 6.816C141.615 6.816 141.151 6.90133 140.724 7.072C140.308 7.24267 139.94 7.488 139.62 7.808C139.3 8.128 139.049 8.50667 138.868 8.944C138.697 9.38133 138.612 9.86667 138.612 10.4C138.612 10.9227 138.697 11.408 138.868 11.856C139.049 12.2933 139.295 12.672 139.604 12.992C139.924 13.312 140.297 13.5573 140.724 13.728C141.151 13.8987 141.615 13.984 142.116 13.984ZM53.5625 31.144C52.9145 31.144 52.3105 31.04 51.7505 30.832C51.1985 30.616 50.7185 30.312 50.3105 29.92C49.9025 29.528 49.5825 29.068 49.3505 28.54C49.1265 28.012 49.0145 27.432 49.0145 26.8C49.0145 26.168 49.1265 25.588 49.3505 25.06C49.5825 24.532 49.9025 24.072 50.3105 23.68C50.7265 23.288 51.2105 22.988 51.7625 22.78C52.3145 22.564 52.9185 22.456 53.5745 22.456C54.3025 22.456 54.9585 22.584 55.5425 22.84C56.1345 23.088 56.6305 23.456 57.0305 23.944L55.7825 25.096C55.4945 24.768 55.1745 24.524 54.8225 24.364C54.4705 24.196 54.0865 24.112 53.6705 24.112C53.2785 24.112 52.9185 24.176 52.5905 24.304C52.2625 24.432 51.9785 24.616 51.7385 24.856C51.4985 25.096 51.3105 25.38 51.1745 25.708C51.0465 26.036 50.9825 26.4 50.9825 26.8C50.9825 27.2 51.0465 27.564 51.1745 27.892C51.3105 28.22 51.4985 28.504 51.7385 28.744C51.9785 28.984 52.2625 29.168 52.5905 29.296C52.9185 29.424 53.2785 29.488 53.6705 29.488C54.0865 29.488 54.4705 29.408 54.8225 29.248C55.1745 29.08 55.4945 28.828 55.7825 28.492L57.0305 29.644C56.6305 30.132 56.1345 30.504 55.5425 30.76C54.9585 31.016 54.2985 31.144 53.5625 31.144ZM64.4284 31.144C63.2364 31.144 62.3044 30.812 61.6324 30.148C60.9604 29.484 60.6244 28.536 60.6244 27.304V22.6H62.5684V27.232C62.5684 28.032 62.7324 28.608 63.0604 28.96C63.3884 29.312 63.8484 29.488 64.4404 29.488C65.0324 29.488 65.4924 29.312 65.8204 28.96C66.1484 28.608 66.3124 28.032 66.3124 27.232V22.6H68.2324V27.304C68.2324 28.536 67.8964 29.484 67.2244 30.148C66.5524 30.812 65.6204 31.144 64.4284 31.144ZM72.5534 31V22.6H74.4974V29.416H78.7094V31H72.5534ZM83.1505 31V24.184H80.4625V22.6H87.7825V24.184H85.0945V31H83.1505ZM94.8198 31.144C93.6278 31.144 92.6958 30.812 92.0238 30.148C91.3518 29.484 91.0158 28.536 91.0158 27.304V22.6H92.9598V27.232C92.9598 28.032 93.1238 28.608 93.4518 28.96C93.7798 29.312 94.2398 29.488 94.8318 29.488C95.4238 29.488 95.8838 29.312 96.2118 28.96C96.5398 28.608 96.7038 28.032 96.7038 27.232V22.6H98.6238V27.304C98.6238 28.536 98.2878 29.484 97.6158 30.148C96.9438 30.812 96.0118 31.144 94.8198 31.144ZM102.945 31V22.6H106.581C107.333 22.6 107.981 22.724 108.525 22.972C109.069 23.212 109.489 23.56 109.785 24.016C110.081 24.472 110.229 25.016 110.229 25.648C110.229 26.272 110.081 26.812 109.785 27.268C109.489 27.716 109.069 28.06 108.525 28.3C107.981 28.54 107.333 28.66 106.581 28.66H104.025L104.889 27.808V31H102.945ZM108.285 31L106.185 27.952H108.261L110.385 31H108.285ZM104.889 28.024L104.025 27.112H106.473C107.073 27.112 107.521 26.984 107.817 26.728C108.113 26.464 108.261 26.104 108.261 25.648C108.261 25.184 108.113 24.824 107.817 24.568C107.521 24.312 107.073 24.184 106.473 24.184H104.025L104.889 23.26V28.024ZM113.065 31L116.809 22.6H118.729L122.485 31H120.445L117.373 23.584H118.141L115.057 31H113.065ZM114.937 29.2L115.453 27.724H119.773L120.301 29.2H114.937ZM125.757 31V22.6H127.701V29.416H131.913V31H125.757ZM137.187 25.984H141.231V27.496H137.187V25.984ZM137.331 29.44H141.903V31H135.399V22.6H141.747V24.16H137.331V29.44Z" fill="black"/>
<path d="M8.517 25.5H29.75V5.66668C29.75 4.91523 29.4515 4.19456 28.9201 3.66321C28.3888 3.13185 27.6681 2.83334 26.9167 2.83334H8.5C6.7915 2.83334 4.25 3.96526 4.25 7.08334V26.9167C4.25 30.0348 6.7915 31.1667 8.5 31.1667H29.75V28.3333H8.517C7.8625 28.3163 7.08333 28.0571 7.08333 26.9167C7.08333 25.7763 7.8625 25.517 8.517 25.5ZM11.3333 8.50001H24.0833V11.3333H11.3333V8.50001Z" fill="black"/>
</svg>
